<svg viewBox="-100 -100 200 200" stroke="#00f" fill="#60a5fa" xmlns="http://www.w3.org/2000/svg">
    <path d="M12-79c4 5 1 22 5 23 4 2 14-18 19-18 3 0 7 6 8 10 1 6-1 14-4 21-4 8-18 22-17 24 2 2 13-5 20-6s16-2 20 0c2 2 3 7 2 10-1 4-14 8-14 11s11 5 16 9 16 11 15 14c-2 3-55-13-56-9-1 3 21 16 20 17C46 28 10 5 8 7 7 9 46 42 45 48c-1 3-6 4-10 3-6-1-18-23-21-21-3 1 15 44 10 49-2 3-8 0-12-1-4 0-9-1-12-3-4-3-7-9-9-16-2-12 9-49 6-50s-25 50-25 49C-28 58-3 8-5 7c-1-1-5 5-8 7l-16 9c-1-1 16-13 14-15-2-3-62 27-65 23-1-2 9-11 12-16l9-11 7-8c6-3 24 0 25-2 0-4-38-15-38-19 0-3 7-6 11-6 8 0 24 12 29 11 2 0 3-1 3-3 1-7-30-45-27-48 2-2 14 9 18 7s2-18 5-19c4-1 11 15 16 15 4-1 6-14 10-15 3-1 9 1 12 4" />
</svg>